#Comment line ignore any data following # character 
#Hierarchical Translation and Rotation (.htr) file 
[Header]	
#Header keywords are followed by a single value 
FileType HTR		#Single word string
DataType HTRS		#Translation followed by rotation and scale data
FileVersion 1		#integer
NumSegments 84		#integer
NumFrames 2		#integer
DataFrameRate 30		#integer, data frame rate in this file
EulerRotationOrder ZYX
CalibrationUnits mm
RotationUnits Degrees
GlobalAxisofGravity Y
BoneLengthAxis Y
ScaleFactor 1.00
[SegmentNames&Hierarchy]
#CHILD	PARENT
MASTER GLOBAL
root MASTER
chest root
L_mid_tent01 root
R_mid_tent01 root
spine01 root
Bip01_Neck chest
L_humerus chest
R_humerus chest
weapon_bone chest
Bip01_Head Bip01_Neck
eye_left_bone Bip01_Head
eye_right_bone Bip01_Head
L_forearm L_humerus
L_front_hand L_forearm
L_weapon_bone L_forearm
L_front_hand01_01 L_front_hand
L_front_hand02_01 L_front_hand
L_front_hand03_01 L_front_hand
L_front_hand01_02 L_front_hand01_01
L_front_hand02_02 L_front_hand02_01
L_front_hand03_02 L_front_hand03_01
R_forearm R_humerus
R_front_hand R_forearm
R_weapon_bone R_forearm
R_front_hand01_01 R_front_hand
R_front_hand02_01 R_front_hand
R_front_hand03_01 R_front_hand
R_front_hand01_02 R_front_hand01_01
R_front_hand02_02 R_front_hand02_01
R_front_hand03_02 R_front_hand03_01
null_rope01_connect L_mid_tent01
Rope1_Seg01 null_rope01_connect
Rope1_Seg02 Rope1_Seg01
Rope1_Seg03 Rope1_Seg02
Rope1_Seg04 Rope1_Seg03
Rope1_Seg05 Rope1_Seg04
Rope1_Seg06 Rope1_Seg05
Rope1_Seg07 Rope1_Seg06
Rope1_Seg09 Rope1_Seg07
L_mid_hand01 Rope1_Seg09
L_mid_hand02 Rope1_Seg09
L_mid_hand03 Rope1_Seg09
null_rope02_connect R_mid_tent01
Rope2_Seg01 null_rope02_connect
Rope2_Seg02 Rope2_Seg01
Rope2_Seg03 Rope2_Seg02
Rope2_Seg04 Rope2_Seg03
Rope2_Seg05 Rope2_Seg04
Rope2_Seg06 Rope2_Seg05
Rope2_Seg07 Rope2_Seg06
Rope2_Seg09 Rope2_Seg07
R_mid_hand01 Rope2_Seg09
R_mid_hand02 Rope2_Seg09
R_mid_hand03 Rope2_Seg09
spine02 spine01
spine03 spine02
pelvis spine03
null_rope03_connect pelvis
null_rope04_connect pelvis
Rope3_Seg01 null_rope03_connect
Rope3_Seg02 Rope3_Seg01
Rope3_Seg03 Rope3_Seg02
Rope3_Seg04 Rope3_Seg03
Rope3_Seg05 Rope3_Seg04
Rope3_Seg06 Rope3_Seg05
Rope3_Seg07 Rope3_Seg06
Rope3_Seg08 Rope3_Seg07
Rope3_Seg09 Rope3_Seg08
R_rear_hand01 Rope3_Seg09
R_rear_hand02 Rope3_Seg09
R_rear_hand03 Rope3_Seg09
Rope4_Seg01 null_rope04_connect
Rope4_Seg02 Rope4_Seg01
Rope4_Seg03 Rope4_Seg02
Rope4_Seg04 Rope4_Seg03
Rope4_Seg05 Rope4_Seg04
Rope4_Seg06 Rope4_Seg05
Rope4_Seg07 Rope4_Seg06
Rope4_Seg08 Rope4_Seg07
Rope4_Seg09 Rope4_Seg08
L_rear_hand01 Rope4_Seg09
L_rear_hand02 Rope4_Seg09
L_rear_hand03 Rope4_Seg09
[BasePosition]
#SegmentName Tx, Ty, Tz, Rx, Ry, Rz, BoneLength
MASTER 0.000000 0.000000 0.000000 -90.000000 0.000000 0.000000 10.000000 
root 0.000000 0.000000 0.000000 0.000000 0.000000 0.000000 10.000000 
chest 0.000000 0.000000 0.000000 0.000000 0.000000 0.000000 10.000000 
L_mid_tent01 0.000000 0.000000 0.000000 0.000000 0.000000 0.000000 10.000000 
R_mid_tent01 0.000000 0.000000 0.000000 0.000000 0.000000 0.000000 10.000000 
spine01 0.000000 0.000000 0.000000 0.000000 0.000000 0.000000 10.000000 
Bip01_Neck 0.000000 0.000000 0.000000 0.000000 0.000000 0.000000 10.000000 
L_humerus 0.000000 0.000000 0.000000 0.000000 0.000000 0.000000 10.000000 
R_humerus 0.000000 0.000000 0.000000 0.000000 0.000000 0.000000 10.000000 
weapon_bone 0.000000 0.000000 0.000000 0.000000 0.000000 0.000000 10.000000 
Bip01_Head 0.000000 0.000000 0.000000 0.000000 0.000000 0.000000 10.000000 
eye_left_bone 0.000000 0.000000 0.000000 0.000000 0.000000 0.000000 10.000000 
eye_right_bone 0.000000 0.000000 0.000000 0.000000 0.000000 0.000000 10.000000 
L_forearm 0.000000 0.000000 0.000000 0.000000 0.000000 0.000000 10.000000 
L_front_hand 0.000000 0.000000 0.000000 0.000000 0.000000 0.000000 10.000000 
L_weapon_bone 0.000000 0.000000 0.000000 0.000000 0.000000 0.000000 10.000000 
L_front_hand01_01 0.000000 0.000000 0.000000 0.000000 0.000000 0.000000 10.000000 
L_front_hand02_01 0.000000 0.000000 0.000000 0.000000 0.000000 0.000000 10.000000 
L_front_hand03_01 0.000000 0.000000 0.000000 0.000000 0.000000 0.000000 10.000000 
L_front_hand01_02 0.000000 0.000000 0.000000 0.000000 0.000000 0.000000 10.000000 
L_front_hand02_02 0.000000 0.000000 0.000000 0.000000 0.000000 0.000000 10.000000 
L_front_hand03_02 0.000000 0.000000 0.000000 0.000000 0.000000 0.000000 10.000000 
R_forearm 0.000000 0.000000 0.000000 0.000000 0.000000 0.000000 10.000000 
R_front_hand 0.000000 0.000000 0.000000 0.000000 0.000000 0.000000 10.000000 
R_weapon_bone 0.000000 0.000000 0.000000 0.000000 0.000000 0.000000 10.000000 
R_front_hand01_01 0.000000 0.000000 0.000000 0.000000 0.000000 0.000000 10.000000 
R_front_hand02_01 0.000000 0.000000 0.000000 0.000000 0.000000 0.000000 10.000000 
R_front_hand03_01 0.000000 0.000000 0.000000 0.000000 0.000000 0.000000 10.000000 
R_front_hand01_02 0.000000 0.000000 0.000000 0.000000 0.000000 0.000000 10.000000 
R_front_hand02_02 0.000000 0.000000 0.000000 0.000000 0.000000 0.000000 10.000000 
R_front_hand03_02 0.000000 0.000000 0.000000 0.000000 0.000000 0.000000 10.000000 
null_rope01_connect 0.000000 0.000000 0.000000 0.000000 0.000000 0.000000 10.000000 
Rope1_Seg01 0.000000 0.000000 0.000000 0.000000 0.000000 0.000000 10.000000 
Rope1_Seg02 0.000000 0.000000 0.000000 0.000000 0.000000 0.000000 10.000000 
Rope1_Seg03 0.000000 0.000000 0.000000 0.000000 0.000000 0.000000 10.000000 
Rope1_Seg04 0.000000 0.000000 0.000000 0.000000 0.000000 0.000000 10.000000 
Rope1_Seg05 0.000000 0.000000 0.000000 0.000000 0.000000 0.000000 10.000000 
Rope1_Seg06 0.000000 0.000000 0.000000 0.000000 0.000000 0.000000 10.000000 
Rope1_Seg07 0.000000 0.000000 0.000000 0.000000 0.000000 0.000000 10.000000 
Rope1_Seg09 0.000000 0.000000 0.000000 0.000000 0.000000 0.000000 10.000000 
L_mid_hand01 0.000000 0.000000 0.000000 0.000000 0.000000 0.000000 10.000000 
L_mid_hand02 0.000000 0.000000 0.000000 0.000000 0.000000 0.000000 10.000000 
L_mid_hand03 0.000000 0.000000 0.000000 0.000000 0.000000 0.000000 10.000000 
null_rope02_connect 0.000000 0.000000 0.000000 0.000000 0.000000 0.000000 10.000000 
Rope2_Seg01 0.000000 0.000000 0.000000 0.000000 0.000000 0.000000 10.000000 
Rope2_Seg02 0.000000 0.000000 0.000000 0.000000 0.000000 0.000000 10.000000 
Rope2_Seg03 0.000000 0.000000 0.000000 0.000000 0.000000 0.000000 10.000000 
Rope2_Seg04 0.000000 0.000000 0.000000 0.000000 0.000000 0.000000 10.000000 
Rope2_Seg05 0.000000 0.000000 0.000000 0.000000 0.000000 0.000000 10.000000 
Rope2_Seg06 0.000000 0.000000 0.000000 0.000000 0.000000 0.000000 10.000000 
Rope2_Seg07 0.000000 0.000000 0.000000 0.000000 0.000000 0.000000 10.000000 
Rope2_Seg09 0.000000 0.000000 0.000000 0.000000 0.000000 0.000000 10.000000 
R_mid_hand01 0.000000 0.000000 0.000000 0.000000 0.000000 0.000000 10.000000 
R_mid_hand02 0.000000 0.000000 0.000000 0.000000 0.000000 0.000000 10.000000 
R_mid_hand03 0.000000 0.000000 0.000000 0.000000 0.000000 0.000000 10.000000 
spine02 0.000000 0.000000 0.000000 0.000000 0.000000 0.000000 10.000000 
spine03 0.000000 0.000000 0.000000 0.000000 0.000000 0.000000 10.000000 
pelvis 0.000000 0.000000 0.000000 0.000000 0.000000 0.000000 10.000000 
null_rope03_connect 0.000000 0.000000 0.000000 0.000000 0.000000 0.000000 10.000000 
null_rope04_connect 0.000000 0.000000 0.000000 0.000000 0.000000 0.000000 10.000000 
Rope3_Seg01 0.000000 0.000000 0.000000 0.000000 0.000000 0.000000 10.000000 
Rope3_Seg02 0.000000 0.000000 0.000000 0.000000 0.000000 0.000000 10.000000 
Rope3_Seg03 0.000000 0.000000 0.000000 0.000000 0.000000 0.000000 10.000000 
Rope3_Seg04 0.000000 0.000000 0.000000 0.000000 0.000000 0.000000 10.000000 
Rope3_Seg05 0.000000 0.000000 0.000000 0.000000 0.000000 0.000000 10.000000 
Rope3_Seg06 0.000000 0.000000 0.000000 0.000000 0.000000 0.000000 10.000000 
Rope3_Seg07 0.000000 0.000000 0.000000 0.000000 0.000000 0.000000 10.000000 
Rope3_Seg08 0.000000 0.000000 0.000000 0.000000 0.000000 0.000000 10.000000 
Rope3_Seg09 0.000000 0.000000 0.000000 0.000000 0.000000 0.000000 10.000000 
R_rear_hand01 0.000000 0.000000 0.000000 0.000000 0.000000 0.000000 10.000000 
R_rear_hand02 0.000000 0.000000 0.000000 0.000000 0.000000 0.000000 10.000000 
R_rear_hand03 0.000000 0.000000 0.000000 0.000000 0.000000 0.000000 10.000000 
Rope4_Seg01 0.000000 0.000000 0.000000 0.000000 0.000000 0.000000 10.000000 
Rope4_Seg02 0.000000 0.000000 0.000000 0.000000 0.000000 0.000000 10.000000 
Rope4_Seg03 0.000000 0.000000 0.000000 0.000000 0.000000 0.000000 10.000000 
Rope4_Seg04 0.000000 0.000000 0.000000 0.000000 0.000000 0.000000 10.000000 
Rope4_Seg05 0.000000 0.000000 0.000000 0.000000 0.000000 0.000000 10.000000 
Rope4_Seg06 0.000000 0.000000 0.000000 0.000000 0.000000 0.000000 10.000000 
Rope4_Seg07 0.000000 0.000000 0.000000 0.000000 0.000000 0.000000 10.000000 
Rope4_Seg08 0.000000 0.000000 0.000000 0.000000 0.000000 0.000000 10.000000 
Rope4_Seg09 0.000000 0.000000 0.000000 0.000000 0.000000 0.000000 10.000000 
L_rear_hand01 0.000000 0.000000 0.000000 0.000000 0.000000 0.000000 10.000000 
L_rear_hand02 0.000000 0.000000 0.000000 0.000000 0.000000 0.000000 10.000000 
L_rear_hand03 0.000000 0.000000 0.000000 0.000000 0.000000 0.000000 10.000000 
#Beginning of Data. Separated by tabs
#Fr	Tx	Ty	Tz	Rx	Ry	Rz	SF
[MASTER]
24 -0.000859 5758.250000 16.727743 0.001660 0.001660 0.001660 5758.273926
25 -0.000896 6000.575195 -132.965408 0.001660 0.001660 0.001660 6002.047852
[root]
24 -158.769775 426.532593 1743.935669 -109.070526 -33.733475 -25.607397 1802.345581
25 -162.557953 439.562439 1748.954590 -108.112366 -30.211573 -26.691496 1810.657959
[chest]
24 -84.512650 -34.090519 0.000000 6.119547 -1.157672 -178.666763 91.129311
25 -84.512650 -34.090519 0.000000 4.583451 -0.635429 -178.264923 91.129311
[L_mid_tent01]
24 27.299309 22.178757 -249.918579 -22.856180 25.055973 17.386965 252.381546
25 27.299301 22.178814 -249.918610 -22.756899 30.902191 18.527287 252.381592
[R_mid_tent01]
24 23.228794 24.509907 226.238495 83.687683 -36.250668 172.721939 228.744751
25 23.228794 24.509907 226.238495 101.826500 -42.685875 152.763458 228.744751
[spine01]
24 -0.361383 -0.195265 0.000000 0.306373 0.124790 20.270124 0.410763
25 -0.361383 -0.195265 0.000000 0.283167 0.115384 20.396420 0.410763
[Bip01_Neck]
24 165.484543 71.581718 0.000119 175.896118 1.177290 24.871183 180.302734
25 165.484543 71.581718 0.000119 175.896118 1.177290 24.871183 180.302734
[L_humerus]
24 -13.983130 -135.272980 -120.471481 -13.066147 82.705132 77.005249 181.680161
25 -13.983130 -135.272980 -120.471481 -11.676672 81.716911 78.393402 181.680161
[R_humerus]
24 -13.983309 -135.273102 125.287651 79.564476 -34.064564 8.286500 184.909012
25 -13.983309 -135.273102 125.287651 78.309555 -34.905033 10.119791 184.909012
[weapon_bone]
24 235.964890 -300.705902 0.000000 0.000000 -89.951546 -128.212341 382.234833
25 235.964890 -300.705902 0.000000 0.000000 -89.951546 -128.212341 382.234833
[Bip01_Head]
24 235.866379 201.040955 -10.466002 -46.988155 6.154832 -62.157459 310.096680
25 235.340271 202.940369 -10.545960 -46.956280 6.979352 -61.368759 310.935760
[eye_left_bone]
24 -24.626970 125.451866 -64.772606 0.000000 -90.000000 -99.840431 143.318359
25 -24.626970 125.451866 -64.772606 0.000000 -90.000000 -99.840431 143.318359
[eye_right_bone]
24 -24.626970 125.451866 64.327362 0.000000 -89.960434 80.159386 143.117676
25 -24.626970 125.451866 64.327362 0.000000 -89.960434 80.159386 143.117676
[L_forearm]
24 322.776093 0.000000 -0.000119 0.000311 -0.002327 -105.234795 322.776093
25 322.776093 0.000000 -0.000119 0.000317 -0.002326 -105.508675 322.776093
[L_front_hand]
24 241.149185 -0.042021 -3.300071 -178.667953 -1.835447 -27.422350 241.171753
25 241.149185 -0.042021 -3.300071 -178.667953 -1.835447 -27.422350 241.171753
[L_weapon_bone]
24 156.183838 0.000000 0.000000 0.000014 0.000007 0.000001 156.183838
25 156.183838 0.000000 0.000000 0.000014 0.000007 0.000001 156.183838
[L_front_hand01_01]
24 86.095154 20.947098 -0.655860 -0.366594 -0.477154 75.385574 88.609184
25 86.095154 20.947098 -0.655860 -0.366594 -0.477154 75.385574 88.609184
[L_front_hand02_01]
24 86.935165 -11.437475 24.513514 154.403519 -59.888931 -61.371990 91.046425
25 86.935165 -11.437475 24.513514 154.403519 -59.888931 -61.371990 91.046425
[L_front_hand03_01]
24 86.637497 -14.123976 -20.424902 -153.913879 58.118130 -62.702892 90.126129
25 86.637497 -14.123976 -20.424902 -153.913849 58.118130 -62.702866 90.126129
[L_front_hand01_02]
24 71.020905 -0.000179 0.000030 0.000334 -0.002323 -106.379684 71.020905
25 71.020905 -0.000179 0.000030 0.000334 -0.002323 -106.379684 71.020905
[L_front_hand02_02]
24 71.020927 -0.000119 0.000060 0.000334 -0.002323 -106.379684 71.020927
25 71.020927 -0.000119 0.000060 0.000334 -0.002323 -106.379684 71.020927
[L_front_hand03_02]
24 71.020905 -0.000060 0.000060 0.000334 -0.002323 -106.379684 71.020905
25 71.020905 -0.000060 0.000060 0.000334 -0.002323 -106.379684 71.020905
[R_forearm]
24 322.776428 -0.000060 0.000030 -0.004755 -0.210977 0.797933 322.776428
25 322.776428 -0.000060 0.000030 -0.021301 -0.210340 4.419317 322.776428
[R_front_hand]
24 238.847015 -0.006795 2.210259 78.152657 3.189585 -8.358073 238.857239
25 238.847015 -0.006795 2.210259 79.484489 5.043923 -10.571099 238.857239
[R_weapon_bone]
24 155.664093 0.002503 -0.000030 0.003487 0.001180 -90.988930 155.664078
25 155.664093 0.002503 -0.000030 0.003487 0.001180 -90.988930 155.664078
[R_front_hand01_01]
24 87.624611 14.231146 22.918642 -154.633484 -59.950619 61.746037 91.683487
25 87.624611 14.231146 22.918642 -154.633499 -59.950619 61.746044 91.683487
[R_front_hand02_01]
24 89.356956 14.367283 -19.491137 154.602661 58.302856 63.744389 92.579636
25 89.356956 14.367283 -19.491137 154.602676 58.302864 63.744389 92.579636
[R_front_hand03_01]
24 87.286232 -22.307278 -0.143439 0.162155 -0.423168 -75.767921 90.091743
25 87.286232 -22.307278 -0.143439 0.162155 -0.423168 -75.767921 90.091743
[R_front_hand01_02]
24 71.020905 0.000060 0.000119 0.002323 -0.000334 106.381721 71.020905
25 71.020905 0.000060 0.000119 0.002323 -0.000334 106.381714 71.020905
[R_front_hand02_02]
24 71.020844 -0.000030 -0.000119 0.002323 -0.000334 106.381721 71.020836
25 71.020844 -0.000030 -0.000119 0.002323 -0.000334 106.381714 71.020836
[R_front_hand03_02]
24 71.020905 0.000000 0.000030 0.002323 -0.000334 106.381721 71.020905
25 71.020905 0.000000 0.000030 0.002323 -0.000334 106.381714 71.020905
[null_rope01_connect]
24 328.732483 0.000000 -0.000238 147.322449 -56.264221 -26.725077 328.732483
25 328.732483 0.000000 -0.000238 153.614487 -58.101536 -38.157349 328.732483
[Rope1_Seg01]
24 0.000000 0.000000 0.000000 23.715164 -33.540878 -96.245872 0.000000
25 0.000000 0.000000 0.000000 20.189838 -29.373857 -93.615456 0.000000
[Rope1_Seg02]
24 139.999863 -0.000179 0.000000 9.564358 -6.717225 -14.199933 139.999863
25 139.999863 -0.000179 0.000000 10.223895 -6.036130 -14.145058 139.999863
[Rope1_Seg03]
24 139.999924 0.000060 -0.000060 27.764059 -17.806328 -28.955704 139.999924
25 139.999924 0.000060 -0.000060 32.915722 -18.264702 -31.480001 139.999924
[Rope1_Seg04]
24 139.999924 -0.000060 -0.000119 21.380758 -24.346601 -18.218840 139.999924
25 139.999924 -0.000060 -0.000119 23.601170 -27.490166 -18.126837 139.999924
[Rope1_Seg05]
24 139.999832 0.000119 -0.000060 8.985292 -27.805031 -5.543269 139.999832
25 139.999832 0.000119 -0.000060 7.618375 -27.845592 -3.666410 139.999832
[Rope1_Seg06]
24 139.999954 0.000119 -0.000060 -0.184058 -30.825047 -0.368216 139.999954
25 139.999954 0.000119 -0.000060 -1.242480 -30.213097 0.813581 139.999954
[Rope1_Seg07]
24 139.999985 0.000060 0.000000 -2.414063 -11.961995 -0.486485 139.999985
25 139.999985 0.000060 0.000000 -2.709111 -11.776514 -0.136635 139.999985
[Rope1_Seg09]
24 121.602913 0.000119 -0.000089 -89.793175 -1.359789 0.847147 121.602913
25 121.602913 0.000119 -0.000089 -89.793175 -1.359789 0.847147 121.602913
[L_mid_hand01]
24 103.859421 1.038730 8.195221 114.520287 -53.310486 -20.623234 104.187431
25 103.859421 1.038730 8.195221 114.520287 -53.310486 -20.623234 104.187431
[L_mid_hand02]
24 105.572853 -4.139662 -10.864139 -155.067673 38.166626 -52.448818 106.211075
25 105.572853 -4.139662 -10.864139 -155.067673 38.166626 -52.448818 106.211075
[L_mid_hand03]
24 104.641464 17.579376 -3.913581 -10.970130 15.317461 57.626949 106.179977
25 104.641464 17.579376 -3.913581 -10.970130 15.317461 57.626949 106.179977
[null_rope02_connect]
24 328.732849 0.000179 -0.000119 -143.417542 -31.214357 105.439148 328.732849
25 328.732849 0.000179 -0.000119 -128.693634 -25.703680 91.503731 328.732849
[Rope2_Seg01]
24 0.000021 -0.000322 0.000095 -7.191147 36.073021 108.525566 0.000336
25 0.000024 -0.000342 0.000099 -27.768116 49.103619 81.522308 0.000357
[Rope2_Seg02]
24 139.999741 -0.000060 -0.000119 -0.060672 -1.536205 0.591066 139.999756
25 139.999741 -0.000060 -0.000119 0.277444 -6.664241 7.104168 139.999756
[Rope2_Seg03]
24 140.000107 0.000030 0.000000 -0.060698 -1.541150 0.591069 140.000107
25 140.000107 0.000030 0.000000 1.132436 -7.669761 8.400153 140.000107
[Rope2_Seg04]
24 139.999802 0.000000 -0.000060 -0.063452 -2.099959 0.853633 139.999802
25 139.999802 0.000000 -0.000060 3.517141 -10.437786 12.166388 139.999802
[Rope2_Seg05]
24 139.999985 -0.000060 0.000119 -0.113368 -1.797979 0.710763 139.999985
25 139.999985 -0.000060 0.000119 3.818584 -4.956080 6.809634 139.999985
[Rope2_Seg06]
24 139.999893 -0.000030 -0.000119 -0.146781 0.045952 -0.171497 139.999893
25 139.999893 -0.000030 -0.000119 -1.314830 1.447900 -2.003532 139.999893
[Rope2_Seg07]
24 139.999893 0.000060 -0.000060 -0.174701 1.256776 -0.747106 139.999893
25 139.999893 0.000060 -0.000060 -1.421026 1.792630 -2.390178 139.999893
[Rope2_Seg09]
24 121.338966 0.000089 -0.000060 136.879395 0.546403 -1.506368 121.338966
25 121.338966 0.000089 -0.000060 136.879395 0.546403 -1.506368 121.338966
[R_mid_hand01]
24 104.680779 11.144459 -10.335981 -33.912148 35.430534 43.502583 105.778534
25 104.680779 11.144459 -10.335981 -35.505901 33.839397 40.705864 105.778534
[R_mid_hand02]
24 104.070427 2.443552 8.231699 68.197044 -48.096607 17.113411 104.424065
25 104.070427 2.443552 8.231699 69.277916 -45.487473 15.633079 104.424065
[R_mid_hand03]
24 106.028137 -11.221827 -5.996406 -171.245392 13.223536 -53.335106 106.788818
25 106.028137 -11.221827 -5.996406 -170.607315 12.782290 -50.502613 106.788818
[spine02]
24 129.756927 0.001550 0.000119 -0.363244 -14.996370 -3.672491 129.756927
25 129.756927 0.001550 0.000119 -0.342122 -14.771862 -3.774797 129.756927
[spine03]
24 78.572899 0.090436 -5.300823 1.366083 4.306788 8.991112 78.751556
25 78.575874 0.089786 -5.272120 1.411338 4.262557 9.590699 78.752594
[pelvis]
24 169.435242 0.051022 0.000000 -0.058851 -0.312928 9.416348 169.435257
25 169.435242 0.051022 0.000000 -0.058634 -0.299311 9.757033 169.435257
[null_rope03_connect]
24 -1.257226 -2.466202 137.391083 110.123688 -24.191658 -11.464625 137.418976
25 -1.257226 -2.466202 137.391083 109.087860 -23.997066 -15.529535 137.418976
[null_rope04_connect]
24 -1.259640 -2.480268 -137.844437 110.123688 -24.191658 -11.464625 137.872513
25 -1.259640 -2.480268 -137.844437 109.087860 -23.997066 -15.529535 137.872513
[Rope3_Seg01]
24 -0.000023 -0.000394 0.000000 15.125990 16.534435 93.394867 0.000394
25 -0.000022 -0.000409 0.000000 17.340078 -3.321874 91.294525 0.000410
[Rope3_Seg02]
24 139.999924 -0.000119 0.000060 -0.142828 5.156277 -0.460232 139.999924
25 139.999924 -0.000119 0.000060 -1.436245 9.584301 -1.166057 139.999924
[Rope3_Seg03]
24 139.999924 -0.000119 0.000119 0.042916 4.864927 -0.427179 139.999924
25 139.999924 -0.000119 0.000119 -0.717399 8.668820 -1.044724 139.999924
[Rope3_Seg04]
24 139.999924 0.000119 0.000000 0.115684 6.397700 -1.948560 139.999924
25 139.999924 0.000119 0.000000 -0.539938 8.331330 -3.008345 139.999924
[Rope3_Seg05]
24 139.999924 -0.000238 0.000060 0.388436 4.192943 -0.384989 139.999924
25 139.999924 -0.000238 0.000060 0.235927 5.303699 0.888931 139.999924
[Rope3_Seg06]
24 139.999893 -0.000119 -0.000060 0.139754 -0.719679 3.220914 139.999893
25 139.999893 -0.000119 -0.000060 0.455659 2.452224 5.014292 139.999893
[Rope3_Seg07]
24 139.999771 0.000060 -0.000119 -0.272050 -2.660894 4.322810 139.999771
25 139.999771 0.000060 -0.000119 0.329381 1.734967 4.964368 139.999771
[Rope3_Seg08]
24 139.999985 -0.000060 0.000000 0.233075 -0.625685 2.008470 139.999985
25 139.999985 -0.000060 0.000000 0.581617 1.696152 2.414349 139.999985
[Rope3_Seg09]
24 90.185997 -0.000179 -0.000060 131.000076 -1.360211 -0.845856 90.185997
25 90.185997 -0.000179 -0.000060 -156.743286 -1.357175 -0.848210 90.185997
[R_rear_hand01]
24 103.366196 -6.073594 -10.757982 -156.049316 6.070419 -2.795869 104.101845
25 103.366196 -6.073594 -10.757982 -177.714203 24.565960 -73.910950 104.101845
[R_rear_hand02]
24 100.509819 12.039542 -7.992327 -38.708435 1.958051 5.461186 101.543350
25 100.509819 12.039542 -7.992327 -12.874829 36.868488 72.167213 101.543350
[R_rear_hand03]
24 101.539970 5.215704 5.435467 84.307625 -2.361032 4.099037 101.819031
25 101.539970 5.215704 5.435467 71.484581 -71.816643 21.513828 101.819031
[Rope4_Seg01]
24 -0.000007 -0.000408 -0.000153 17.708746 -51.730232 -58.416382 0.000436
25 -0.000007 -0.000423 -0.000153 26.348324 -49.341286 -68.308441 0.000449
[Rope4_Seg02]
24 139.999985 0.000060 0.000119 -4.072565 3.431591 18.708849 139.999985
25 139.999985 0.000060 0.000119 -3.107002 6.486580 20.437172 139.999985
[Rope4_Seg03]
24 139.999924 0.000000 -0.000238 -24.510918 6.597314 44.710693 139.999924
25 139.999924 0.000000 -0.000238 -26.194427 13.140422 46.503220 139.999924
[Rope4_Seg04]
24 139.999985 0.000000 0.000119 -29.776773 -9.639306 30.525949 139.999985
25 139.999985 0.000000 0.000119 -34.747574 -8.838368 29.273727 139.999985
[Rope4_Seg05]
24 139.999802 -0.000060 -0.000119 -15.486684 -26.835770 14.668402 139.999802
25 139.999802 -0.000060 -0.000119 -17.488123 -29.815771 13.537062 139.999802
[Rope4_Seg06]
24 139.999924 0.000000 0.000060 -2.856661 -21.244482 4.791775 139.999924
25 139.999924 0.000000 0.000060 -2.595039 -19.928326 2.828541 139.999924
[Rope4_Seg07]
24 139.999802 0.000000 0.000000 0.290821 -7.993333 1.964548 139.999802
25 139.999802 0.000000 0.000000 0.101059 -7.983693 1.204313 139.999802
[Rope4_Seg08]
24 139.999924 0.000000 0.000119 -1.113505 -4.049984 1.025895 139.999924
25 139.999924 0.000000 0.000119 -1.237914 -4.058097 0.624565 139.999924
[Rope4_Seg09]
24 90.185791 0.000060 0.000060 -135.617828 2.228885 0.850567 90.185791
25 90.185791 0.000060 0.000060 -135.617828 2.228885 0.850567 90.185791
[L_rear_hand01]
24 101.696655 -8.392275 -7.654577 -19.915020 -33.950905 119.950104 102.329041
25 101.696655 -8.392275 -7.654577 -19.915020 -33.950905 119.950104 102.329041
[L_rear_hand02]
24 102.726799 -1.568258 5.773216 77.862221 61.878510 165.399200 102.900848
25 102.726799 -1.568258 5.773216 77.862221 61.878510 165.399200 102.900848
[L_rear_hand03]
24 104.552910 9.721220 -10.420293 -173.099182 -23.740307 -117.327896 105.519653
25 104.552910 9.721220 -10.420293 -173.099182 -23.740307 -117.327896 105.519653
